<?xml version="1.0" standalone="no"?>
<!DOCTYPE svg PUBLIC "-//W3C//DTD SVG 1.1//EN" "http://www.w3.org/Graphics/SVG/1.1/DTD/svg11.dtd">
<!--Generator: Xara Designer (www.xara.com), SVG filter version: 6,5,0,13-->
<svg fill="none" fill-rule="evenodd" stroke="black" stroke-linejoin="bevel" stroke-miterlimit="10" font-family="Times New Roman" font-size="16" style="font-variant-ligatures:none" xmlns:xlink="http://www.w3.org/1999/xlink" xmlns="http://www.w3.org/2000/svg" version="1.1" overflow="visible" width="192pt" height="192pt" viewBox="2043.91 -637.269 192 192">
 <defs>
  <style type="text/css">@import url('https://themes.googleusercontent.com/fonts/css?family=Open Sans:400,600');</style>
 </defs>
 <g id="Page background" transform="scale(1 -1)" stroke-width="0.501"/>
 <g id="Layer 1" transform="scale(1 -1)" stroke-width="0.501">
  <g id="Group" stroke="#c89a65" fill-rule="nonzero" stroke-linejoin="round" stroke-linecap="round" stroke-width="14.76" stroke-miterlimit="4">
   <g id="Group_1">
    <path d="M 2191.14,588.756 C 2189.11,588.756 2187.46,590.411 2187.46,592.458 C 2187.46,594.505 2189.11,596.138 2191.14,596.138" fill="none"/>
    <path d="M 2191.14,588.756 C 2193.18,588.756 2194.84,590.411 2194.84,592.458 C 2194.84,594.505 2193.18,596.138 2191.14,596.138" fill="none"/>
   </g>
   <path d="M 2051.29,591.907 C 2051.29,612.884 2068.29,629.889 2089.27,629.889 L 2190.54,629.889 C 2211.52,629.889 2228.53,612.884 2228.53,591.907 L 2228.53,490.634 C 2228.53,469.654 2211.52,452.649 2190.54,452.649 L 2089.27,452.649 C 2068.29,452.649 2051.29,469.654 2051.29,490.634 L 2051.29,591.907 Z" marker-start="none" marker-end="none"/>
   <path d="M 2102.26,541.269 C 2102.26,520.486 2119.13,503.641 2139.91,503.641 C 2160.69,503.641 2177.56,520.486 2177.56,541.269 C 2177.56,562.052 2160.69,578.916 2139.91,578.916 C 2119.13,578.916 2102.26,562.052 2102.26,541.269" fill="none"/>
  </g>
 </g>
</svg>
