<?xml version="1.0" standalone="no"?>
<!DOCTYPE svg PUBLIC "-//W3C//DTD SVG 1.1//EN" "http://www.w3.org/Graphics/SVG/1.1/DTD/svg11.dtd">
<!--Generator: Xara Designer (www.xara.com), SVG filter version: 6,5,0,13-->
<svg fill="none" fill-rule="evenodd" stroke="black" stroke-linejoin="bevel" stroke-miterlimit="10" font-family="Times New Roman" font-size="16" style="font-variant-ligatures:none" xmlns:xlink="http://www.w3.org/1999/xlink" xmlns="http://www.w3.org/2000/svg" version="1.1" overflow="visible" width="192.001pt" height="192.019pt" viewBox="1555.53 -494.746 192.001 192.019">
 <defs>
  <style type="text/css">@import url('https://themes.googleusercontent.com/fonts/css?family=Open Sans:400,600');</style>
 </defs>
 <g id="Page background" transform="scale(1 -1)" stroke-width="0.501"/>
 <g id="Layer 1" transform="scale(1 -1)" stroke-width="0.501">
  <path d="M 1605.95,336.385 L 1612.92,332.332 C 1624.53,325.556 1637.74,321.947 1651.53,321.947 C 1693.94,321.947 1728.33,356.313 1728.33,398.747 C 1728.33,441.16 1693.94,475.544 1651.53,475.544 C 1609.12,475.544 1574.73,441.16 1574.73,398.747 C 1574.73,384.94 1578.36,371.732 1585.14,360.114 L 1589.18,353.164 L 1582.91,330.106 L 1605.95,336.385 Z M 1555.57,302.727 L 1568.55,350.438 C 1560.27,364.627 1555.53,381.12 1555.53,398.747 C 1555.53,451.756 1598.52,494.746 1651.53,494.746 C 1704.54,494.746 1747.53,451.756 1747.53,398.747 C 1747.53,345.717 1704.54,302.746 1651.53,302.746 C 1633.92,302.746 1617.43,307.469 1603.24,315.746 L 1555.57,302.727 Z M 1616.89,443.769 C 1618.18,443.865 1619.46,443.887 1620.75,443.809 C 1621.27,443.79 1621.79,443.731 1622.31,443.654 C 1623.82,443.483 1625.51,442.56 1626.07,441.275 C 1628.95,434.784 1631.71,428.256 1634.42,421.691 C 1635.02,420.232 1634.65,418.35 1633.52,416.545 C 1632.94,415.604 1632.04,414.297 1631.01,412.955 C 1629.91,411.57 1627.57,409.017 1627.57,409.017 C 1627.57,409.017 1626.63,407.884 1626.99,406.465 C 1627.13,405.946 1627.57,405.16 1627.97,404.505 C 1628.2,404.142 1628.39,403.816 1628.53,403.604 C 1630.98,399.496 1634.29,395.328 1638.32,391.431 C 1639.49,390.297 1640.6,389.167 1641.81,388.111 C 1646.31,384.136 1651.39,380.891 1656.88,378.49 L 1656.94,378.471 C 1657.75,378.127 1658.17,377.934 1659.34,377.434 C 1659.96,377.186 1660.55,376.953 1661.18,376.801 C 1661.42,376.742 1661.65,376.704 1661.88,376.686 C 1663.43,376.589 1664.33,377.589 1664.72,378.049 C 1671.67,386.459 1672.3,387.015 1672.34,386.996 L 1672.34,386.996 C 1673.26,387.956 1674.7,388.282 1675.97,388.204 C 1676.57,388.167 1677.14,388.052 1677.68,387.822 C 1682.79,385.481 1691.12,381.85 1691.12,381.85 L 1696.7,379.335 C 1697.65,378.894 1698.49,377.838 1698.53,376.801 C 1698.57,376.148 1698.62,375.111 1698.39,373.229 C 1698.11,370.732 1697.34,367.739 1696.59,366.183 C 1696.07,365.09 1695.38,364.108 1694.59,363.285 C 1693.52,362.17 1692.71,361.478 1691.41,360.518 C 1690.62,359.925 1690.22,359.655 1690.22,359.655 C 1688.89,358.81 1688.12,358.388 1686.55,357.543 C 1684.07,356.239 1681.35,355.469 1678.54,355.335 C 1676.76,355.239 1674.99,355.105 1673.21,355.201 C 1673.13,355.201 1667.75,356.028 1667.75,356.028 C 1654.1,359.618 1641.47,366.357 1630.89,375.686 C 1628.72,377.589 1626.7,379.642 1624.65,381.698 C 1616.12,390.182 1609.65,399.341 1605.74,408.021 C 1603.82,412.281 1602.59,416.871 1602.57,421.576 C 1602.53,427.393 1604.43,433.076 1607.98,437.703 C 1608.69,438.604 1609.35,439.545 1610.5,440.641 C 1611.71,441.775 1612.47,442.387 1613.32,442.809 C 1614.43,443.387 1615.64,443.694 1616.89,443.769 Z" fill="#c89a65" stroke-linejoin="miter" fill-rule="nonzero" stroke-width="9.599" stroke="none" marker-start="none" marker-end="none" stroke-miterlimit="4"/>
 </g>
</svg>
